<svg width="118" height="34" viewBox="0 0 118 34" fill="none" xmlns="http://www.w3.org/2000/svg">
<path d="M39.2935 22.1712C38.6647 21.8535 38.1882 21.3902 37.8705 20.788C37.5528 20.1857 37.394 19.4643 37.394 18.6237V18.3524H40.1936C40.1936 18.9878 40.3061 19.451 40.5245 19.7423C40.7495 20.0335 41.1069 20.1725 41.5967 20.1725C41.9475 20.1725 42.2188 20.0997 42.4108 19.954C42.6027 19.8084 42.7351 19.5967 42.8145 19.3253C42.8939 19.0473 42.9336 18.6899 42.9336 18.2399V9.88745H46.0376V18.2399C46.0376 19.1996 45.8788 20.0136 45.5677 20.6688C45.2567 21.3241 44.7735 21.8204 44.1249 22.1514C43.4763 22.4823 42.6424 22.6477 41.6364 22.6477C40.7098 22.6477 39.9289 22.4889 39.3001 22.1712H39.2935Z" fill="white"/>
<path d="M48.1688 11.4229C47.9107 11.2773 47.7055 11.0854 47.5533 10.8339C47.401 10.589 47.3282 10.311 47.3282 9.99334C47.3282 9.67565 47.401 9.38444 47.5533 9.14618C47.7055 8.90792 47.9107 8.71598 48.1754 8.577C48.4401 8.43801 48.7446 8.37183 49.0953 8.37183C49.4461 8.37183 49.7506 8.43801 50.0153 8.577C50.28 8.71598 50.4852 8.90792 50.6308 9.14618C50.7764 9.38444 50.8492 9.66903 50.8492 9.99334C50.8492 10.3176 50.7764 10.589 50.6308 10.8339C50.4852 11.0788 50.28 11.2773 50.0153 11.4229C49.7506 11.5685 49.4461 11.6413 49.0953 11.6413C48.7446 11.6413 48.4269 11.5685 48.1688 11.4229ZM47.6923 12.7797H50.5051V22.3631H47.6923V12.7797Z" fill="white"/>
<path d="M53.9665 21.9793C53.2186 21.5557 52.6494 20.9667 52.2523 20.2122C51.8552 19.4577 51.6567 18.5775 51.6567 17.5781C51.6567 16.5787 51.8552 15.6985 52.2523 14.9373C52.6494 14.1762 53.2186 13.5872 53.9665 13.1702C54.7144 12.7533 55.588 12.5481 56.6006 12.5481C57.6132 12.5481 58.4869 12.7599 59.2347 13.1768C59.9826 13.6004 60.5518 14.1895 60.9489 14.9572C61.346 15.7183 61.5446 16.5986 61.5446 17.5847C61.5446 18.5708 61.346 19.4776 60.9423 20.2254C60.5386 20.9799 59.9694 21.5624 59.2281 21.9859C58.4869 22.4095 57.6132 22.6147 56.6006 22.6147C55.588 22.6147 54.7144 22.4029 53.9665 21.9859V21.9793ZM57.7522 20.146C58.0699 19.9144 58.3148 19.5768 58.4736 19.1466C58.6391 18.7165 58.7185 18.1936 58.7185 17.5781C58.7185 17.0023 58.6391 16.4927 58.4869 16.0559C58.328 15.619 58.0964 15.2683 57.7853 15.0168C57.4742 14.7653 57.0771 14.6395 56.594 14.6395C56.1638 14.6395 55.7865 14.752 55.4689 14.9704C55.1512 15.1955 54.9063 15.5264 54.7475 15.9698C54.582 16.4132 54.5026 16.9493 54.5026 17.5781C54.5026 18.2068 54.582 18.7165 54.7475 19.1466C54.9129 19.5768 55.1512 19.9144 55.4689 20.146C55.7865 20.3777 56.1704 20.4968 56.6138 20.4968C57.0573 20.4968 57.4411 20.3777 57.7588 20.146H57.7522Z" fill="white"/>
<path d="M65.6083 12.4885H61.9086V9.88745H72.412V12.4885H68.7123V22.3565H65.6083V12.4885Z" fill="white"/>
<path d="M73.1466 9.47705H75.9594V14.0438H76.1779C76.4691 13.5408 76.8463 13.1635 77.3162 12.9186C77.7861 12.6737 78.3355 12.548 78.9774 12.548C79.6856 12.548 80.2879 12.687 80.771 12.965C81.2608 13.2429 81.6248 13.6466 81.8697 14.1827C82.1146 14.7188 82.2403 15.3674 82.2403 16.1418V22.3697H79.4275V16.9029C79.4275 16.1815 79.2951 15.6388 79.037 15.2814C78.7789 14.924 78.3553 14.7387 77.7663 14.7387C77.1772 14.7387 76.7007 14.9174 76.4029 15.2814C76.1051 15.6454 75.9594 16.1881 75.9594 16.9228V22.3697H73.1466V9.49029V9.47705Z" fill="white"/>
<path d="M84.292 11.4229C84.0339 11.2773 83.8287 11.0854 83.6765 10.8339C83.5243 10.589 83.4515 10.311 83.4515 9.99334C83.4515 9.67565 83.5243 9.38444 83.6765 9.14618C83.8287 8.90792 84.0339 8.71598 84.2986 8.577C84.5634 8.43801 84.8678 8.37183 85.2186 8.37183C85.5694 8.37183 85.8738 8.43801 86.1386 8.577C86.4033 8.71598 86.6085 8.90792 86.7541 9.14618C86.8997 9.38444 86.9725 9.66903 86.9725 9.99334C86.9725 10.3176 86.8997 10.589 86.7541 10.8339C86.6085 11.0788 86.4033 11.2773 86.1386 11.4229C85.8738 11.5685 85.5694 11.6413 85.2186 11.6413C84.8678 11.6413 84.5502 11.5685 84.292 11.4229ZM83.8089 12.7797H86.6217V22.3631H83.8089V12.7797Z" fill="white"/>
<path d="M88.1572 12.78H90.6986L90.8773 14.0772H91.0957C91.387 13.5742 91.7708 13.1904 92.2474 12.9322C92.7305 12.6741 93.2931 12.5417 93.9417 12.5417C94.6498 12.5417 95.2521 12.6807 95.7485 12.9587C96.2449 13.2367 96.6155 13.6404 96.867 14.1765C97.1185 14.7126 97.2443 15.3612 97.2443 16.1355V22.3635H94.4314V16.8967C94.4314 16.1885 94.2991 15.6458 94.0343 15.2818C93.7696 14.9178 93.346 14.7324 92.7503 14.7324C92.1547 14.7324 91.698 14.9111 91.4068 15.2751C91.109 15.6392 90.9634 16.1819 90.9634 16.9165V22.3635H88.1506V12.78H88.1572Z" fill="white"/>
<path d="M100.851 25.6062C100.242 25.4143 99.7593 25.1297 99.3886 24.7591C99.0246 24.3884 98.793 23.9251 98.7135 23.3692H101.526C101.626 23.6075 101.811 23.7928 102.096 23.9119C102.38 24.031 102.738 24.0906 103.168 24.0906C103.651 24.0906 104.041 24.0046 104.352 23.8391C104.657 23.6736 104.882 23.4288 105.028 23.1111C105.173 22.7934 105.246 22.3897 105.246 21.8933V20.702H105.028C104.776 21.1256 104.425 21.4499 103.975 21.6749C103.525 21.9065 102.996 22.019 102.393 22.019C101.526 22.019 100.792 21.8205 100.189 21.4168C99.5872 21.013 99.1371 20.4571 98.8393 19.7489C98.5415 19.0408 98.3892 18.2068 98.3892 17.2604C98.3892 16.3735 98.5547 15.5661 98.879 14.8513C99.2033 14.1365 99.6666 13.5739 100.275 13.1636C100.884 12.7533 101.593 12.5481 102.413 12.5481C103.016 12.5481 103.538 12.6805 103.982 12.9452C104.425 13.2099 104.776 13.5872 105.028 14.0836H105.246L105.425 12.7864H107.986V21.6418C107.986 22.5551 107.807 23.3295 107.443 23.9582C107.079 24.587 106.53 25.0701 105.795 25.401C105.054 25.732 104.127 25.8974 103.009 25.8974C102.182 25.8974 101.46 25.7981 100.851 25.6062ZM104.333 19.6364C104.637 19.418 104.869 19.1136 105.028 18.7231C105.186 18.3326 105.259 17.8825 105.259 17.3795C105.259 16.8765 105.193 16.4132 105.054 16.0029C104.915 15.5926 104.697 15.255 104.386 15.0101C104.081 14.7653 103.684 14.6395 103.201 14.6395C102.79 14.6395 102.44 14.7454 102.135 14.9638C101.837 15.1822 101.606 15.4867 101.447 15.8838C101.288 16.2809 101.215 16.7508 101.215 17.2935C101.215 17.8362 101.288 18.2863 101.44 18.6834C101.593 19.0805 101.811 19.3915 102.109 19.6232C102.407 19.8548 102.771 19.9673 103.221 19.9673C103.671 19.9673 104.022 19.8614 104.333 19.643V19.6364Z" fill="white"/>
<path d="M110.388 21.9131C109.581 21.4498 109.144 20.735 109.071 19.7754H111.758C111.844 20.1129 112.043 20.3644 112.354 20.5365C112.665 20.7019 113.075 20.788 113.578 20.788C113.876 20.788 114.154 20.7483 114.399 20.6689C114.644 20.5894 114.843 20.4703 114.995 20.3115C115.147 20.146 115.22 19.9474 115.22 19.7092C115.22 19.504 115.16 19.3319 115.041 19.1863C114.922 19.0407 114.75 18.9216 114.525 18.8289C114.3 18.7297 114.002 18.637 113.631 18.5377L113.433 18.5046L112.242 18.2333C111.222 17.995 110.468 17.6575 109.998 17.2207C109.528 16.7838 109.283 16.2014 109.283 15.4535C109.283 14.7917 109.468 14.2424 109.832 13.8122C110.196 13.382 110.699 13.0577 111.328 12.8591C111.957 12.6606 112.685 12.5547 113.499 12.5547C114.737 12.5547 115.716 12.7731 116.438 13.2033C117.159 13.6335 117.563 14.2689 117.649 15.0962H115.048C114.988 14.8314 114.823 14.6329 114.551 14.4939C114.28 14.3549 113.929 14.2887 113.499 14.2887C113.201 14.2887 112.936 14.3218 112.711 14.3946C112.486 14.4674 112.314 14.5733 112.195 14.7123C112.076 14.8513 112.017 15.0167 112.017 15.2087C112.017 15.4866 112.142 15.705 112.387 15.8705C112.632 16.036 113.029 16.175 113.572 16.2941L114.796 16.5456C115.458 16.6912 116.014 16.8765 116.477 17.1082C116.934 17.3398 117.291 17.6442 117.55 18.0281C117.808 18.412 117.94 18.8885 117.94 19.4511C117.94 20.1857 117.748 20.788 117.364 21.2579C116.98 21.7278 116.457 22.072 115.802 22.297C115.147 22.522 114.386 22.6279 113.519 22.6279C112.235 22.6279 111.183 22.3963 110.382 21.933L110.388 21.9131Z" fill="white"/>
<path d="M16.6982 33.3965C25.9177 33.3965 33.3965 25.9177 33.3965 16.6982C33.3965 7.4788 25.9177 0 16.6982 0C7.4788 0 0 7.4788 0 16.6982C0 25.9177 7.4788 33.3965 16.6982 33.3965Z" fill="#6D17CE"/>
<path d="M20.3516 16.6982C20.3516 18.0021 21.0532 19.2132 22.1783 19.8618C23.3034 20.517 24.7065 20.517 25.8316 19.8618C26.9568 19.2066 27.6583 18.0021 27.6583 16.6982C27.6583 15.3944 26.9568 14.1832 25.8316 13.5346C24.7065 12.8794 23.3034 12.8794 22.1783 13.5346C21.0532 14.1899 20.3516 15.3944 20.3516 16.6982Z" fill="white"/>
<path d="M21.6554 12.6339C20.2126 13.4744 19.3125 15.0165 19.3125 16.6976H21.3973C21.3973 15.771 21.8937 14.9106 22.7078 14.4341L21.6554 12.6339ZM26.3611 12.6339C24.9117 11.7867 23.1115 11.7867 21.6554 12.6339L22.7078 14.4341C23.5086 13.9642 24.508 13.9642 25.3088 14.4341L26.3611 12.6339ZM28.704 16.6976C28.704 15.0231 27.8039 13.4678 26.3545 12.6273L25.3154 14.4407C26.1162 14.8974 26.6192 15.7644 26.6192 16.6976H28.704ZM26.3611 20.7613C27.8039 19.9208 28.704 18.3787 28.704 16.6976H26.6192C26.6192 17.6242 26.1229 18.4846 25.3088 18.9611L26.3611 20.7679V20.7613ZM21.6554 20.7613C23.1049 21.6085 24.9117 21.6085 26.3611 20.7613L25.3088 18.9545C24.508 19.4244 23.5086 19.4244 22.7078 18.9545L21.6554 20.7613ZM19.3125 16.6976C19.3125 18.3721 20.2126 19.934 21.662 20.7679L22.7011 18.9545C21.9003 18.4912 21.3973 17.6308 21.3973 16.6976H19.3125ZM22.1783 19.8612L22.7011 18.9611H22.6945L22.1783 19.8612Z" fill="#6D17CE"/>
<path d="M16.6982 10.3708C16.6982 11.6747 17.3998 12.8858 18.5249 13.5344C19.6501 14.1897 21.0532 14.1897 22.1783 13.5344C23.3034 12.8792 24.005 11.6747 24.005 10.3708C24.005 9.06701 23.3034 7.85584 22.1783 7.20724C21.0532 6.55201 19.6501 6.55201 18.5249 7.20724C17.3998 7.86246 16.6982 9.06701 16.6982 10.3708Z" fill="white"/>
<path d="M18.0021 6.30724C16.5593 7.14778 15.6592 8.68987 15.6592 10.3709H17.744C17.744 9.44437 18.2403 8.58397 19.0544 8.10745L18.0021 6.30724ZM22.7078 6.30724C21.2583 5.46009 19.4515 5.46009 18.0021 6.30724L19.0544 8.10745C19.8552 7.63754 20.8546 7.63754 21.6554 8.10745L22.7078 6.30724ZM25.0507 10.3709C25.0507 8.69649 24.1506 7.14116 22.7011 6.30062L21.6621 8.11407C22.4629 8.57074 22.9659 9.43775 22.9659 10.3709H25.0507ZM22.7078 14.4346C24.1506 13.5941 25.0507 12.052 25.0507 10.3709H22.9659C22.9659 11.2975 22.4695 12.1579 21.6554 12.6344L22.7078 14.4413V14.4346ZM18.0021 14.4346C19.4515 15.2818 21.2517 15.2818 22.7078 14.4346L21.6554 12.6278C20.8546 13.0977 19.8552 13.0977 19.0544 12.6278L18.0021 14.4346ZM15.6592 10.3709C15.6592 12.0454 16.5593 13.6073 18.0087 14.4413L19.0478 12.6278C18.247 12.1712 17.744 11.3041 17.744 10.3709H15.6592ZM22.1783 7.20735L21.6488 8.10745H21.6554L22.1783 7.20735Z" fill="#6D17CE"/>
<path d="M16.6982 23.0249C16.6982 24.3287 17.3998 25.5399 18.5249 26.1885C19.6501 26.8437 21.0532 26.8437 22.1783 26.1885C23.3034 25.5333 24.005 24.3287 24.005 23.0249C24.005 21.7211 23.3034 20.5099 22.1783 19.8613C21.0532 19.2061 19.6501 19.2061 18.5249 19.8613C17.3998 20.5165 16.6982 21.7211 16.6982 23.0249Z" fill="white"/>
<path d="M18.0021 18.9547C16.5593 19.7952 15.6592 21.3373 15.6592 23.0184H17.744C17.744 22.0918 18.2403 21.2314 19.0544 20.7549L18.0021 18.9547ZM22.7078 18.9547C21.2583 18.1075 19.4515 18.1075 18.0021 18.9547L19.0544 20.7549C19.8552 20.285 20.8546 20.285 21.6554 20.7549L22.7078 18.9547ZM25.0507 23.0184C25.0507 21.3439 24.1506 19.7886 22.7011 18.9481L21.6621 20.7615C22.4629 21.2182 22.9659 22.0852 22.9659 23.0184H25.0507ZM22.7078 27.0887C24.1506 26.2482 25.0507 24.7061 25.0507 23.025H22.9659C22.9659 23.9516 22.4695 24.812 21.6554 25.2885L22.7078 27.0953V27.0887ZM18.0021 27.0887C19.4515 27.9359 21.2517 27.9359 22.7078 27.0887L21.6554 25.2819C20.8546 25.7518 19.8552 25.7518 19.0544 25.2819L18.0021 27.0887ZM15.6592 23.0184C15.6592 24.6929 16.5593 26.2548 18.0087 27.0887L19.0478 25.2753C18.247 24.812 17.744 23.9516 17.744 23.0184H15.6592ZM22.1783 19.8614L21.6488 20.7615H21.6554L22.1783 19.8614Z" fill="#6D17CE"/>
<path d="M9.39812 23.0249C9.39812 24.3287 10.0997 25.5399 11.2248 26.1885C12.3499 26.8437 13.753 26.8437 14.8782 26.1885C16.0033 25.5333 16.7048 24.3287 16.7048 23.0249C16.7048 21.7211 16.0033 20.5099 14.8782 19.8613C13.753 19.2061 12.3499 19.2061 11.2248 19.8613C10.0997 20.5165 9.39812 21.7211 9.39812 23.0249Z" fill="white"/>
<path d="M10.6953 18.9547C9.25251 19.7952 8.35241 21.3373 8.35241 23.0184H10.4372C10.4372 22.0918 10.9336 21.2314 11.7477 20.7549L10.6953 18.9547ZM15.401 18.9547C13.9516 18.1075 12.1448 18.1075 10.6953 18.9547L11.7477 20.7549C12.5485 20.285 13.5479 20.285 14.3487 20.7549L15.401 18.9547ZM17.7439 23.0184C17.7439 21.3439 16.8438 19.7886 15.3944 18.9481L14.3553 20.7615C15.1561 21.2182 15.6591 22.0852 15.6591 23.0184H17.7439ZM15.401 27.0887C16.8438 26.2482 17.7439 24.7061 17.7439 23.025H15.6591C15.6591 23.9516 15.1628 24.812 14.3487 25.2885L15.401 27.0953V27.0887ZM10.6953 27.0887C12.1448 27.9359 13.945 27.9359 15.401 27.0887L14.3487 25.2819C13.5479 25.7518 12.5485 25.7518 11.7477 25.2819L10.6953 27.0887ZM8.35241 23.0184C8.35241 24.6929 9.25251 26.2548 10.7019 27.0887L11.741 25.2753C10.9402 24.812 10.4372 23.9516 10.4372 23.0184H8.35241ZM14.8715 19.8614L14.3487 20.7615H14.3553L14.8715 19.8614Z" fill="#6D17CE"/>
<path d="M9.39812 10.3708C9.39812 11.6747 10.0997 12.8858 11.2248 13.5344C12.3499 14.1897 13.753 14.1897 14.8782 13.5344C16.0033 12.8792 16.7048 11.6747 16.7048 10.3708C16.7048 9.06701 16.0033 7.85584 14.8782 7.20724C13.753 6.55201 12.3499 6.55201 11.2248 7.20724C10.0997 7.86246 9.39812 9.06701 9.39812 10.3708Z" fill="white"/>
<path d="M10.6953 6.30724C9.25251 7.14778 8.35241 8.68987 8.35241 10.3709H10.4372C10.4372 9.44437 10.9336 8.58397 11.7477 8.10745L10.6953 6.30724ZM15.401 6.30724C13.9516 5.46009 12.1448 5.46009 10.6953 6.30724L11.7477 8.10745C12.5485 7.63754 13.5479 7.63754 14.3487 8.10745L15.401 6.30724ZM17.7439 10.3709C17.7439 8.69649 16.8438 7.14116 15.3944 6.30062L14.3553 8.11407C15.1561 8.57074 15.6591 9.43775 15.6591 10.3709H17.7439ZM15.401 14.4346C16.8438 13.5941 17.7439 12.052 17.7439 10.3709H15.6591C15.6591 11.2975 15.1628 12.1579 14.3487 12.6344L15.401 14.4413V14.4346ZM10.6953 14.4346C12.1448 15.2818 13.945 15.2818 15.401 14.4346L14.3487 12.6278C13.5479 13.0977 12.5485 13.0977 11.7477 12.6278L10.6953 14.4346ZM8.35241 10.3709C8.35241 12.0454 9.25251 13.6073 10.7019 14.4413L11.741 12.6278C10.9402 12.1712 10.4372 11.3041 10.4372 10.3709H8.35241ZM14.8715 7.20735L14.3487 8.10745H14.3553L14.8715 7.20735Z" fill="#6D17CE"/>
<path d="M5.74476 16.6982C5.74476 18.0021 6.44631 19.2132 7.57144 19.8618C8.69657 20.517 10.0997 20.517 11.2248 19.8618C12.3499 19.2066 13.0515 18.0021 13.0515 16.6982C13.0515 15.3944 12.3499 14.1832 11.2248 13.5346C10.0997 12.8794 8.69657 12.8794 7.57144 13.5346C6.44631 14.1899 5.74476 15.3944 5.74476 16.6982Z" fill="white"/>
<path d="M7.04201 12.6339C5.59919 13.4744 4.69909 15.0165 4.69909 16.6976H6.78389C6.78389 15.771 7.28027 14.9106 8.09433 14.4341L7.04201 12.6339ZM11.7477 12.6339C10.2983 11.7867 8.49806 11.7867 7.04201 12.6339L8.09433 14.4341C8.89516 13.9642 9.89454 13.9642 10.6954 14.4341L11.7477 12.6339ZM14.0906 16.6976C14.0906 15.0231 13.1905 13.4678 11.7411 12.6273L10.702 14.4407C11.5028 14.8974 12.0058 15.7644 12.0058 16.6976H14.0906ZM11.7477 20.7613C13.1905 19.9208 14.0906 18.3787 14.0906 16.6976H12.0058C12.0058 17.6242 11.5094 18.4846 10.6954 18.9611L11.7477 20.7679V20.7613ZM7.04201 20.7613C8.49144 21.6085 10.2983 21.6085 11.7477 20.7613L10.6954 18.9545C9.89454 19.4244 8.89516 19.4244 8.09433 18.9545L7.04201 20.7613ZM4.69909 16.6976C4.69909 18.3721 5.59919 19.934 7.04862 20.7679L8.08771 18.9545C7.28689 18.4912 6.78389 17.6308 6.78389 16.6976H4.69909ZM7.56486 19.8612L8.09433 18.9611H8.08771L7.56486 19.8612Z" fill="#6D17CE"/>
</svg>
